<?xml version="1.0" encoding="UTF-8" standalone="no"?>
<!-- Created with Inkscape (http://www.inkscape.org/) -->

<svg
   width="300"
   height="100"
   viewBox="0 0 300 100"
   version="1.1"
   id="svg1"
   inkscape:version="1.3.2 (091e20ef0f, 2023-11-25, custom)"
   sodipodi:docname="Diwan.svg"
   xmlns:inkscape="http://www.inkscape.org/namespaces/inkscape"
   xmlns:sodipodi="http://sodipodi.sourceforge.net/DTD/sodipodi-0.dtd"
   xmlns="http://www.w3.org/2000/svg"
   xmlns:svg="http://www.w3.org/2000/svg">
  <sodipodi:namedview
     id="namedview1"
     pagecolor="#ffffff"
     bordercolor="#000000"
     borderopacity="0.25"
     inkscape:showpageshadow="2"
     inkscape:pageopacity="0.0"
     inkscape:pagecheckerboard="0"
     inkscape:deskcolor="#d1d1d1"
     inkscape:document-units="px"
     inkscape:zoom="1.2472578"
     inkscape:cx="65.343348"
     inkscape:cy="93.404908"
     inkscape:window-width="1576"
     inkscape:window-height="831"
     inkscape:window-x="10"
     inkscape:window-y="55"
     inkscape:window-maximized="1"
     inkscape:current-layer="g20" />
  <defs
     id="defs1" />
  <g
     inkscape:label="Layer 1"
     inkscape:groupmode="layer"
     id="layer1">
    <path
       d="m 218.25586,27.792969 v 44.414062 h 10.49609 V 43.041016 l 18.43164,29.166015 h 12.41602 V 27.792969 h -10.62305 l -0.11914,28.955078 -17.92969,-28.955078 z"
       style="font-size:64px;font-family:Cantarell;-inkscape-font-specification:'Cantarell, @wght=800';font-variation-settings:'wght' 800;text-align:center;text-anchor:middle;fill:#7a3000"
       id="path13"
       inkscape:label="N" />
    <path
       d="m 184.84766,27.792969 -15.80664,44.414062 h 11.83984 l 2.71484,-9.15039 h 15.49219 l 2.84766,9.15039 h 12.22461 L 198.99219,27.792969 Z m 6.30859,9.787109 4.82227,15.492188 h -9.41993 z"
       style="font-size:64px;font-family:Cantarell;-inkscape-font-specification:'Cantarell, @wght=800';font-variation-settings:'wght' 800;text-align:center;text-anchor:middle;fill:#7a3000"
       id="path12"
       inkscape:label="A" />
    <g
       id="g20"
       inkscape:label="W">
      <path
         id="path20"
         style="font-size:64px;font-family:Cantarell;-inkscape-font-specification:'Cantarell, @wght=800';font-variation-settings:'wght' 800;text-align:center;text-anchor:middle;fill:#7a3000"
         d="m -118.11531,-101.12955 12.80079,44.414058 h 12.160149 l 7.67578,-29.24414 8.45118,29.24414 h 11.83984 l 12.73633,-44.414058 h -11.19922 l -7.14649,29.806636 -8.08593,-29.550776 h -12.09571 l -7.76562,30.488276 -6.890629,-30.744136 z" />
    </g>
    <path
       d="m 40.400391,27.792969 v 44.414062 h 15.80664 c 15.231985,0 25.28125,-9.151529 25.28125,-23.103515 0,-13.375987 -9.089234,-21.310547 -24.449219,-21.310547 z m 10.878906,9.535156 h 5.121094 c 8.511991,0 13.568359,4.864649 13.568359,13.056641 0,7.935992 -4.416477,12.287109 -12.480469,12.287109 h -6.208984 z"
       style="font-size:64px;font-family:Cantarell;-inkscape-font-specification:'Cantarell, @wght=800';font-variation-settings:'wght' 800;text-align:center;text-anchor:middle;fill:#7a3000"
       id="path10"
       inkscape:label="D" />
    <path
       d="M 88.400391,27.792969 V 72.207031 H 99.664062 V 27.792969 Z"
       style="font-size:64px;font-family:Cantarell;-inkscape-font-specification:'Cantarell, @wght=800';font-variation-settings:'wght' 800;text-align:center;text-anchor:middle;fill:#7a3000"
       id="path9"
       inkscape:label="I" />
  </g>
</svg>
